<?xml version="1.0" encoding="iso-8859-1"?>
<!-- Generator: Adobe Illustrator 19.0.0, SVG Export Plug-In . SVG Version: 6.00 Build 0)  -->
<svg version="1.1" id="Layer_1" xmlns="http://www.w3.org/2000/svg" xmlns:xlink="http://www.w3.org/1999/xlink" x="0px" y="0px"
	 viewBox="0 0 512 512" style="enable-background:new 0 0 512 512;" xml:space="preserve">
<path style="fill:#E7C05C;" d="M117.579,95.319v65.362c18.04,0,32.681-14.63,32.681-32.681S135.619,95.319,117.579,95.319z"/>
<path style="fill:#FFD875;" d="M117.579,95.319c6.013,0,10.894,14.63,10.894,32.681s-4.88,32.681-10.894,32.681
	c-18.051,0-32.681-14.63-32.681-32.681S99.528,95.319,117.579,95.319z"/>
<polygon style="fill:#FF8048;" points="283.234,247.83 283.234,302.298 256,345.872 228.766,302.298 228.766,247.83 "/>
<path style="fill:#FFA46E;" d="M283.234,302.298v174.298c0,15.044-12.19,27.234-27.234,27.234c-15.044,0-27.234-12.19-27.234-27.234
	V302.298H283.234z"/>
<path style="fill:#E7C05C;" d="M303.932,8.17l-53.379,261.447h32.681c17.974,0,34.173-14.63,35.644-32.55
	C323.551,179.886,336.613,8.17,336.613,8.17H303.932z"/>
<path style="fill:#FFD875;" d="M175.387,8.17h128.545c0,0-13.061,171.716-17.735,228.897c-1.471,17.92-17.669,32.55-35.644,32.55
	h-21.787c-17.974,0-34.13-14.63-35.644-32.55C188.307,179.875,175.387,8.17,175.387,8.17z"/>
<path style="fill:#E7C05C;" d="M394.425,95.319v65.362c18.04,0,32.681-14.63,32.681-32.681S412.465,95.319,394.425,95.319z"/>
<path style="fill:#FFD875;" d="M394.425,95.319c6.013,0,10.894,14.63,10.894,32.681s-4.88,32.681-10.894,32.681
	c-18.051,0-32.681-14.63-32.681-32.681S376.374,95.319,394.425,95.319z"/>
<path d="M256,457.532c-4.513,0-8.17,3.658-8.17,8.17v10.894c0,4.512,3.657,8.17,8.17,8.17s8.17-3.658,8.17-8.17v-10.894
	C264.17,461.19,260.513,457.532,256,457.532z"/>
<path d="M435.271,128c0-22.526-18.325-40.851-40.851-40.851c-22.526,0-40.851,18.325-40.851,40.851
	c0,18.439,12.281,34.055,29.091,39.118l-6.829,75.128c-4.061,44.68-40.409,80.225-84.427,84.183v-49.447
	c18.77-3.722,34.029-19.904,35.611-39.244c4.628-56.554,17.613-227.229,17.744-228.947c0.172-2.268-0.609-4.506-2.155-6.173
	C341.058,0.949,338.887,0,336.613,0H175.387c-2.273,0-4.443,0.948-5.99,2.613c-1.546,1.667-2.328,3.903-2.156,6.17
	c0.036,0.491,3.742,49.702,7.867,103.501c0.345,4.498,4.263,7.877,8.772,7.521c4.499-0.345,7.867-4.271,7.521-8.772
	c-3.095-40.363-5.953-78.143-7.203-94.694h143.6c-2.73,35.817-13.051,170.984-17.066,220.063
	c-1.112,13.576-13.704,25.043-27.498,25.043h-54.468c-13.762,0-26.355-11.478-27.499-25.062
	c-1.522-18.082-3.996-49.262-7.351-92.674c-0.346-4.498-4.268-7.87-8.776-7.516c-4.499,0.348-7.864,4.277-7.516,8.776
	c3.359,43.449,5.834,74.667,7.36,92.785c1.629,19.325,16.885,35.495,35.611,39.222v49.451
	c-44.018-3.958-80.365-39.502-84.427-84.184l-6.83-75.127c16.81-5.062,29.092-20.679,29.092-39.118
	c0-22.526-18.325-40.851-40.851-40.851s-40.851,18.325-40.851,40.851c0,21,15.929,38.342,36.337,40.596l6.83,75.129
	c4.817,53.019,48.302,95.11,100.7,99.109v133.761C220.596,496.117,236.478,512,256,512c19.522,0,35.404-15.883,35.404-35.404
	V342.834c52.398-4,95.882-46.091,100.698-99.109l6.83-75.129C419.342,166.342,435.271,149,435.271,128z M93.07,128
	c0-13.516,10.996-24.511,24.511-24.511s24.511,10.995,24.511,24.511c0,12.354-9.189,22.597-21.089,24.267
	c-0.4-0.023-0.804-0.027-1.215,0.01c-0.412,0.037-0.808,0.114-1.198,0.209c-0.334,0.013-0.67,0.025-1.008,0.025
	C104.065,152.511,93.07,141.516,93.07,128z M275.064,476.596c0,10.511-8.553,19.064-19.064,19.064s-19.064-8.553-19.064-19.064
	V277.787h38.128V476.596z M394.42,152.511c-0.339,0-0.674-0.012-1.01-0.026c-0.389-0.095-0.786-0.171-1.198-0.209
	c-0.414-0.038-0.821-0.034-1.224-0.011c-11.896-1.674-21.079-11.915-21.079-24.266c0-13.516,10.996-24.511,24.511-24.511
	s24.511,10.995,24.511,24.511S407.935,152.511,394.42,152.511z"/>
<g>
</g>
<g>
</g>
<g>
</g>
<g>
</g>
<g>
</g>
<g>
</g>
<g>
</g>
<g>
</g>
<g>
</g>
<g>
</g>
<g>
</g>
<g>
</g>
<g>
</g>
<g>
</g>
<g>
</g>
</svg>
